<svg width="515" height="90" viewBox="0 0 515 90" fill="none" xmlns="http://www.w3.org/2000/svg">
<path d="M198.329 50.5095C195.607 48.8854 192.539 47.502 189.156 46.3742C186.359 45.4419 183.803 44.5999 181.487 43.833C179.156 43.0661 177.156 42.224 175.457 41.2917C173.758 40.3594 172.45 39.2466 171.517 37.9534C170.585 36.6602 170.119 34.946 170.119 32.8258C170.119 30.7055 170.63 28.871 171.668 27.3372C172.69 25.8034 174.104 24.6456 175.908 23.8486C177.713 23.0516 179.728 22.6907 181.983 22.7509C184.705 22.7509 187.006 23.2922 188.855 24.3899C190.705 25.4876 192.118 26.9011 193.051 28.6304C193.983 30.3597 194.449 32.119 194.449 33.9084H205.02C204.96 29.9837 203.953 26.5703 202.028 23.6381C200.103 20.7209 197.456 18.4202 194.103 16.751C190.75 15.097 186.78 14.2549 182.194 14.2549C177.607 14.2549 173.713 15.0669 170.329 16.6909C166.946 18.3149 164.33 20.5855 162.495 23.4727C160.661 26.3598 159.758 29.7732 159.758 33.6979C159.758 38.2843 161.112 42.0135 163.803 44.8705C166.495 47.7276 170.6 50.0884 176.119 51.953C178.84 52.8252 181.472 53.6673 183.998 54.4943C186.524 55.3213 188.72 56.2536 190.584 57.2912C192.449 58.3288 193.923 59.622 195.02 61.1858C196.118 62.7497 196.66 64.7647 196.66 67.2157C196.66 69.351 196.133 71.2156 195.066 72.8547C193.998 74.4787 192.449 75.7568 190.434 76.6891C188.404 77.6214 185.998 78.0876 183.201 78.0876C180.013 78.0876 177.307 77.4711 175.081 76.238C172.856 75.005 171.141 73.3509 169.954 71.2457C168.766 69.1405 168.164 66.8398 168.164 64.3136H157.698C157.698 68.7646 158.766 72.6592 160.886 75.9824C163.006 79.3056 165.999 81.877 169.863 83.7115C173.713 85.531 178.164 86.4482 183.216 86.4482C188.539 86.4482 192.945 85.5009 196.479 83.6062C200.013 81.7115 202.659 79.2755 204.449 76.2831C206.238 73.2907 207.14 70.0728 207.14 66.6142C207.14 62.6294 206.358 59.3513 204.795 56.795C203.231 54.2387 201.095 52.1485 198.359 50.5095H198.329Z" fill="#8D54FF"/>
<path d="M248.372 37.0991C244.643 34.9037 240.402 33.806 235.605 33.806C230.809 33.806 226.628 34.9037 222.839 37.0991C219.05 39.2946 216.072 42.3621 213.922 46.3169C211.756 50.2717 210.674 54.9031 210.674 60.2263C210.674 65.5494 211.741 69.9854 213.862 73.9402C215.982 77.8949 218.944 80.9625 222.734 83.1579C226.523 85.3534 230.809 86.4511 235.59 86.4511C240.372 86.4511 244.553 85.3534 248.297 83.1579C252.056 80.9625 255.033 77.8949 257.214 73.9402C259.409 69.9854 260.507 65.384 260.507 60.136C260.507 54.8881 259.409 50.1965 257.214 46.2718C255.018 42.3471 252.056 39.2946 248.342 37.0991H248.372ZM248.282 69.9102C246.883 72.5718 245.079 74.5567 242.853 75.895C240.628 77.2183 238.177 77.8949 235.53 77.8949C232.884 77.8949 230.448 77.2333 228.252 75.895C226.057 74.5717 224.282 72.5718 222.914 69.9102C221.546 67.2486 220.869 64.0006 220.869 60.136C220.869 56.2715 221.546 52.9483 222.914 50.3168C224.282 47.6853 226.087 45.7154 228.342 44.3771C230.598 43.0538 233.064 42.3772 235.726 42.3772C238.387 42.3772 240.808 43.0388 243.004 44.3771C245.199 45.7004 246.973 47.6853 248.342 50.3168C249.71 52.9483 250.387 56.2114 250.387 60.136C250.387 64.0607 249.695 67.2486 248.297 69.9102H248.282Z" fill="#8D54FF"/>
<path d="M276.19 13.4746H266.22V85.262H276.19V13.4746Z" fill="#8D54FF"/>
<path d="M323.648 42.6918C321.979 39.8949 319.678 37.7295 316.716 36.1657C313.753 34.6018 310.25 33.8199 306.19 33.8199C301.468 33.8199 297.273 34.9477 293.573 37.2032C289.889 39.4588 287.047 42.5715 285.047 46.5263C283.047 50.481 282.055 55.0223 282.055 60.1349C282.055 65.2475 283.047 69.6083 285.047 73.5931C287.047 77.578 289.859 80.7207 293.528 83.0064C297.182 85.3071 301.363 86.4499 306.084 86.4499C309.077 86.4499 311.678 86.0138 313.919 85.1567C316.144 84.2996 318.069 83.1868 319.693 81.8185C321.317 80.4501 322.67 78.9764 323.738 77.3825L324.64 85.262H333.617V13.4746H323.648V42.6918ZM321.603 69.3527C320.31 71.9842 318.475 74.0443 316.114 75.5329C313.753 77.0216 311.017 77.7735 307.889 77.7735C304.761 77.7735 302.115 77.0216 299.709 75.5329C297.318 74.0292 295.468 71.9842 294.175 69.3527C292.882 66.7212 292.235 63.6235 292.235 60.0296C292.235 56.4357 292.882 53.5185 294.175 50.857C295.468 48.1954 297.318 46.1353 299.709 44.6767C302.1 43.2181 304.821 42.4813 307.889 42.4813C310.956 42.4813 313.753 43.2181 316.114 44.6767C318.475 46.1353 320.31 48.1954 321.603 50.857C322.896 53.5185 323.543 56.6012 323.543 60.1349C323.543 63.6686 322.896 66.7362 321.603 69.3527Z" fill="#8D54FF"/>
<path d="M376.488 70.4049C375.555 72.7958 374.052 74.6905 371.947 76.0889C369.856 77.4874 367.21 78.1791 364.022 78.1791C361.3 78.1791 358.819 77.5174 356.594 76.1791C354.368 74.8559 352.594 72.9161 351.255 70.3898C350.098 68.1944 349.481 65.5178 349.331 62.4201H387.645C387.781 61.563 387.841 60.7209 387.841 59.924V57.7285C387.841 53.3377 386.893 49.3529 384.999 45.759C383.104 42.1651 380.397 39.278 376.879 37.0825C373.36 34.8871 369.135 33.7894 364.217 33.7894C359.3 33.7894 354.955 34.9021 351.21 37.1276C347.451 39.3531 344.564 42.4508 342.534 46.4056C340.504 50.3603 339.496 54.9617 339.496 60.2097C339.496 65.4576 340.549 70.044 342.639 73.9687C344.729 77.8934 347.631 80.9459 351.316 83.1413C355 85.3368 359.24 86.4345 364.022 86.4345C368.007 86.4345 371.495 85.7428 374.488 84.3443C377.48 82.9459 380.006 81.0361 382.067 78.6151C384.127 76.1942 385.585 73.4424 386.457 70.3898H376.488V70.4049ZM351.255 49.3228C352.579 46.9619 354.383 45.1725 356.639 43.9395C358.894 42.7064 361.39 42.0899 364.112 42.0899C367.962 42.0899 371.195 43.2929 373.781 45.6838C376.367 48.0747 377.766 51.3378 377.976 55.4579H349.421C349.692 53.0971 350.293 51.037 351.255 49.3228Z" fill="#8D54FF"/>
<path d="M433.314 35.0068H422.638L409.48 54.4499L396.323 35.0068H385.466L402.909 60.1339L385.466 85.261H396.323L409.48 65.7127L422.638 85.261H433.314L415.961 60.1339L433.314 35.0068Z" fill="#8D54FF"/>
<path d="M469.51 37.0991C465.991 34.9037 461.766 33.806 456.849 33.806C451.932 33.806 447.586 34.9187 443.842 37.1442C440.082 39.3697 437.195 42.4674 435.165 46.4222C433.135 50.3769 432.128 54.9783 432.128 60.2263C432.128 65.4742 433.18 70.0606 435.27 73.9853C437.361 77.91 440.263 80.9625 443.947 83.1579C447.631 85.3534 451.871 86.4511 456.653 86.4511C460.638 86.4511 464.127 85.7594 467.119 84.3609C470.111 82.9624 472.638 81.0527 474.698 78.6317C476.758 76.2108 478.216 73.459 479.089 70.4064H469.119C468.187 72.7973 466.683 74.692 464.578 76.0905C462.488 77.4889 459.841 78.1806 456.653 78.1806C453.931 78.1806 451.45 77.519 449.225 76.1807C446.999 74.8574 445.225 72.9176 443.887 70.3914C442.729 68.196 442.112 65.5193 441.962 62.4217H480.277C480.412 61.5646 480.472 60.7225 480.472 59.9255V57.7301C480.472 53.3393 479.525 49.3544 477.63 45.7605C475.735 42.1667 473.029 39.2795 469.51 37.0841V37.0991ZM442.052 55.4445C442.323 53.0836 442.924 51.0235 443.887 49.3093C445.21 46.9485 447.014 45.159 449.27 43.926C451.526 42.693 454.022 42.0764 456.743 42.0764C460.593 42.0764 463.826 43.2794 466.412 45.6703C468.999 48.0612 470.397 51.3243 470.608 55.4445H442.052Z" fill="#8D54FF"/>
<path d="M506.245 35.1158C503.749 35.9879 501.629 37.1909 499.869 38.7548C498.11 40.3186 496.636 42.2284 495.433 44.4839L494.637 35.0105H485.659V85.2647H495.629V60.2429C495.629 57.1151 496.05 54.5438 496.877 52.5138C497.704 50.4838 498.817 48.8748 500.215 47.6718C501.614 46.4688 503.238 45.6117 505.102 45.0854C506.967 44.5591 508.922 44.2885 510.982 44.2885H514.576V33.8226C511.523 33.8226 508.741 34.2587 506.245 35.1158Z" fill="#8D54FF"/>
<path d="M79.2327 28.0624L81.9243 25.3707L87.458 30.9044C93.6683 37.1298 103.758 37.1298 109.969 30.9044L100.225 21.1603L81.9243 2.84506L80.9619 3.80744C82.18 5.95775 83.4431 8.79977 84.3453 11.6418C78.2252 10.935 71.8645 12.9049 67.1729 17.5965L56.707 28.0624L97.984 69.3393H92.8112L54.286 30.9645L0.0470377 85.2035H5.74612C5.74612 85.2035 85.0972 34.0471 85.0972 85.2035L136.419 85.2637L79.2327 28.0624ZM98.0592 24.8594L97.578 25.3406C95.1119 23.9422 90.8865 22.4234 88.8564 23.1603L88.7963 15.5815L98.0592 24.8444V24.8594Z" fill="#8D54FF"/>
</svg>
